HIERARCHY
ROOT root
{
	OFFSET 0.000000 0.000000 0.000000
	CHANNELS 6 Xposition Yposition Zposition Zrotation Yrotation Xrotation
	JOINT lhip
	{
		OFFSET 0.058581 -0.082280 -0.017664
		CHANNELS 3 Zrotation Yrotation Xrotation
		JOINT lknee
		{
			OFFSET 0.043451 -0.386469 0.008037
			CHANNELS 3 Zrotation Yrotation Xrotation
			JOINT lankle
			{
				OFFSET -0.014790 -0.426874 -0.037428
				CHANNELS 3 Zrotation Yrotation Xrotation
				JOINT ltoe
				{
					OFFSET 0.041054 -0.060286 0.122042
					CHANNELS 3 Zrotation Yrotation Xrotation
					End Site
					{
						OFFSET 0.000000 0.000000 0.000000
					}
				}
			}
		}
	}
	JOINT rhip
	{
		OFFSET -0.060310 -0.090513 -0.013543
		CHANNELS 3 Zrotation Yrotation Xrotation
		JOINT rknee
		{
			OFFSET -0.043257 -0.383688 -0.004843
			CHANNELS 3 Zrotation Yrotation Xrotation
			JOINT rankle
			{
				OFFSET 0.019056 -0.420046 -0.034562
				CHANNELS 3 Zrotation Yrotation Xrotation
				JOINT rtoe
				{
					OFFSET -0.034840 -0.062106 0.130323
					CHANNELS 3 Zrotation Yrotation Xrotation
					End Site
					{
						OFFSET 0.000000 0.000000 0.000000
					}
				}
			}
		}
	}
	JOINT lowerback
	{
		OFFSET 0.004439 0.124404 -0.038385
		CHANNELS 3 Zrotation Yrotation Xrotation
		JOINT upperback
		{
			OFFSET 0.004488 0.137956 0.026820
			CHANNELS 3 Zrotation Yrotation Xrotation
			JOINT chest
			{
				OFFSET -0.002265 0.056032 0.002855
				CHANNELS 3 Zrotation Yrotation Xrotation
				JOINT lowerneck
				{
					OFFSET -0.013390 0.211636 -0.033468
					CHANNELS 3 Zrotation Yrotation Xrotation
					JOINT upperneck
					{
						OFFSET 0.010113 0.088937 0.050410
						CHANNELS 3 Zrotation Yrotation Xrotation
						End Site
						{
							OFFSET 0.000000 0.000000 0.000000
						}
					}
				}
				JOINT lclavicle
				{
					OFFSET 0.071702 0.114000 -0.018898
					CHANNELS 3 Zrotation Yrotation Xrotation
					JOINT lshoulder
					{
						OFFSET 0.122921 0.045205 -0.019046
						CHANNELS 3 Zrotation Yrotation Xrotation
						JOINT lelbow
						{
							OFFSET 0.255332 -0.015649 -0.022946
							CHANNELS 3 Zrotation Yrotation Xrotation
							JOINT lwrist
							{
								OFFSET 0.265709 0.012698 -0.007375
								CHANNELS 3 Zrotation Yrotation Xrotation
								End Site
								{
									OFFSET 0.000000 0.000000 0.000000
								}
							}
						}
					}
				}
				JOINT rclavicle
				{
					OFFSET -0.082954 0.112472 -0.023707
					CHANNELS 3 Zrotation Yrotation Xrotation
					JOINT rshoulder
					{
						OFFSET -0.113228 0.046853 -0.008472
						CHANNELS 3 Zrotation Yrotation Xrotation
						JOINT relbow
						{
							OFFSET -0.260127 -0.014369 -0.031269
							CHANNELS 3 Zrotation Yrotation Xrotation
							JOINT rwrist
							{
								OFFSET -0.269108 0.006794 -0.006027
								CHANNELS 3 Zrotation Yrotation Xrotation
								End Site
								{
									OFFSET 0.000000 0.000000 0.000000
								}
							}
						}
					}
				}
			}
		}
	}
}
MOTION
Frames: 16
Frame Time: 0.033333
0.520574 0.198970 1.005645 58.832271 5.371421 101.942898 3.740343 6.590408 -4.008022 5.247952 30.081268 -4.581407 -2.734970 6.619474 -4.132294 0.000000 -0.000000 0.000000 -0.363350 6.809260 -21.012029 -5.567272 -3.332374 6.968767 8.597083 14.218397 -2.246054 0.000000 -0.000000 0.000000 -0.328729 -3.710215 -2.522420 3.752205 -2.693934 -4.033217 2.950581 1.766023 -3.933749 0.542052 -0.593765 1.292904 3.785253 -0.979768 -4.190700 -0.762238 2.903589 -6.469399 -85.579115 -18.498520 23.750243 174.214073 -48.625582 -135.196773 2.893907 -19.369858 -23.951635 1.491833 5.773086 -5.528724 85.410781 27.119205 33.632352 -168.526713 49.596795 -133.147488 15.295380 10.793378 -13.964763 
0.519343 0.198721 1.005841 65.265111 4.790542 102.801536 4.137700 5.184640 -6.005209 5.430069 27.642905 -4.296627 -3.094046 4.827955 -3.580758 0.000000 -0.000000 0.000000 -0.745033 5.198867 -20.296174 -5.702533 -5.793177 6.552610 7.650158 12.230234 -3.193941 0.000000 -0.000000 0.000000 -0.295990 -2.745446 -3.275342 3.383879 -2.213165 -3.860095 2.949175 1.885248 -4.134560 0.436941 1.929872 0.954144 2.893297 1.562823 -4.163614 -0.805813 3.186367 -6.330778 -85.153760 -18.811506 23.169202 174.138761 -48.533126 -134.902321 2.835349 -19.544829 -25.383669 1.147469 5.865397 -5.106858 85.505786 27.585633 33.995005 -168.896754 49.855541 -133.391722 13.686343 10.890127 -15.957395 
0.517809 0.199087 1.006139 74.218705 4.213882 102.671134 5.242383 3.907974 -7.563446 5.079569 23.604484 -3.880541 -4.040057 1.857511 -2.798756 0.000000 -0.000000 0.000000 -0.624111 2.619553 -17.957904 -5.983113 -9.100458 6.045508 6.577054 9.970456 -4.224539 0.000000 -0.000000 0.000000 0.082540 -1.359503 -2.223056 2.717698 -1.757165 -4.516488 3.022089 2.242792 -4.379418 0.036536 5.623963 0.640256 2.077786 5.345060 -3.907259 -0.703080 2.602630 -6.421775 -84.639364 -18.995982 22.231556 173.882926 -48.713841 -133.619963 3.299241 -19.571386 -25.908284 0.823600 6.827094 -4.400241 85.009912 28.076007 33.119883 -169.078120 50.605012 -133.114151 11.191555 11.126822 -16.887550 
0.516983 0.200043 1.006594 84.670688 3.012333 103.129835 5.654451 1.417049 -10.381569 4.842134 18.781227 -3.031665 -4.696715 -0.844356 -1.711219 0.000000 -0.000000 0.000000 -1.127243 0.269157 -15.973687 -6.179046 -12.734999 5.659468 5.503801 6.394166 -5.430389 0.000000 -0.000000 0.000000 0.122013 0.304208 -2.147242 2.010156 -1.054126 -5.051108 2.883009 2.631563 -4.499654 -0.168752 9.661633 0.130638 1.063913 9.324887 -3.632390 -0.642608 2.669929 -6.668989 -84.175803 -19.275819 21.753755 173.996759 -49.314353 -132.332690 4.557920 -19.359813 -26.845523 0.648297 7.159149 -4.072471 84.769063 28.297456 32.872486 -168.766929 50.966897 -131.914138 10.429270 10.789082 -18.523958 
0.516793 0.200804 1.007101 95.889978 1.739962 103.055910 5.841388 -1.541213 -12.912699 4.601945 13.747258 -2.189610 -5.531359 -3.651531 -0.740038 0.000000 -0.000000 0.000000 -1.323575 -2.285646 -13.475301 -6.567741 -16.897563 5.668266 4.584366 3.128624 -6.657268 0.000000 -0.000000 0.000000 0.347565 2.611250 -1.306391 1.016153 -0.304948 -5.593823 2.531705 2.658861 -5.433166 -0.246200 14.413071 0.375888 -0.101713 13.544991 -3.232503 -0.432727 2.191836 -6.380938 -83.264719 -19.104596 21.039626 173.787680 -49.215387 -131.304754 4.226918 -19.075188 -27.374973 0.524707 7.585709 -3.526530 84.355813 28.350660 32.357644 -168.755025 51.483527 -131.307776 8.886679 10.920457 -19.603489 
0.517054 0.203031 1.006018 106.790160 0.637167 102.554476 5.549675 -4.326911 -14.957801 4.631179 8.953973 -1.435247 -6.218776 -6.582947 -0.168336 0.000000 -0.000000 0.000000 -1.366303 -4.742326 -10.813163 -6.951769 -21.379861 6.024216 3.745648 0.609661 -7.822407 0.000000 -0.000000 0.000000 0.955039 4.575008 -0.181363 -0.128682 0.572540 -6.426702 2.236090 3.274539 -5.542993 -0.823936 19.100632 0.909232 -0.541807 17.468234 -3.874049 -0.183112 1.703687 -6.632526 -82.813462 -18.502911 20.293420 173.580148 -49.059857 -130.467928 3.672442 -19.373351 -27.874695 -0.034040 8.398613 -3.253172 84.671989 28.221974 31.579167 -168.737956 51.871786 -130.674069 8.259159 11.499515 -19.918363 
0.517844 0.205297 1.003836 117.016287 -0.092073 101.997306 5.371402 -7.187131 -16.373018 4.594006 4.994515 -1.434254 -6.785042 -9.177307 0.381730 0.000000 -0.000000 0.000000 -0.915497 -6.327576 -8.365129 -7.347119 -25.722115 6.492898 3.087476 -2.558329 -9.011592 0.000000 -0.000000 0.000000 1.554687 6.546591 0.483994 -0.944014 1.752146 -6.770829 2.035380 3.982177 -5.631748 -0.674436 22.871613 0.797497 -1.631645 20.903402 -3.062218 -0.215826 1.306283 -6.785386 -83.026750 -18.189765 20.322771 172.611872 -49.041835 -129.014575 3.154001 -20.206664 -28.596400 -0.912889 9.148023 -3.154032 84.803643 28.534094 31.820861 -168.264897 52.179845 -129.648270 6.460952 11.402369 -20.458414 
0.518804 0.207823 1.001259 125.757961 -0.632895 101.582743 5.016427 -9.006310 -17.313294 4.348387 1.375176 -2.049802 -7.381575 -11.535489 1.193612 0.000000 -0.000000 0.000000 -0.367100 -7.842672 -6.812062 -7.722227 -29.212750 7.518419 2.605083 -5.190855 -10.214951 0.000000 -0.000000 0.000000 1.728594 8.256036 1.031196 -1.649508 2.959075 -7.627865 2.037363 4.691391 -5.357855 -0.343488 26.006764 0.927244 -2.272194 24.019949 -3.087796 -0.271192 1.585390 -6.985689 -83.490580 -17.582769 20.225445 172.747220 -49.181438 -128.331726 4.122936 -19.924250 -28.264771 -0.849358 9.846718 -2.670009 84.437546 29.095913 31.509319 -168.378041 52.326339 -129.237923 6.127090 11.790566 -20.577700 
0.519469 0.209874 0.999157 132.533623 -1.133338 101.416213 4.666576 -10.570687 -18.197998 4.067050 -1.249277 -2.506706 -8.116382 -13.498178 2.041196 0.000000 -0.000000 0.000000 0.038575 -9.123440 -6.382542 -8.488394 -31.768365 9.360849 2.144319 -6.991119 -11.383601 0.000000 -0.000000 0.000000 1.354833 10.065667 1.120847 -2.057931 4.278738 -7.995912 2.158277 5.410063 -5.209876 0.004605 28.522566 0.769690 -2.584292 25.810574 -2.673561 -0.380031 1.825460 -7.235759 -84.069009 -17.059811 20.371273 172.586306 -49.285589 -127.926360 4.789925 -20.509300 -29.076295 -0.743039 10.408146 -2.385848 84.605002 29.478632 31.565463 -168.574817 52.485555 -128.793948 6.157318 12.044971 -20.768396 
0.520463 0.211257 0.998436 137.353967 -1.525272 101.465110 4.443683 -11.820539 -19.152446 3.838984 -3.120544 -2.440807 -8.519228 -14.960396 2.552125 0.000000 -0.000000 0.000000 0.581061 -10.195719 -6.299921 -9.205135 -33.410977 10.453478 1.581802 -8.192993 -12.088897 0.000000 -0.000000 0.000000 0.677505 11.812263 0.930954 -2.409487 5.633093 -8.308277 2.352986 5.865286 -4.988092 0.203131 29.572068 0.799752 -2.808983 26.238181 -2.758930 -0.314687 2.439262 -7.415733 -85.436717 -16.786071 20.663260 172.595529 -49.364671 -127.329996 5.412698 -20.643924 -29.793806 -0.399134 10.856205 -1.916693 85.029390 29.854219 31.856429 -168.890729 52.675667 -128.788739 4.483485 12.013524 -21.030847 
0.522186 0.212402 0.998523 140.115285 -2.040297 101.218968 3.977950 -12.951006 -19.399483 3.844153 -4.485714 -2.120484 -8.530757 -15.365176 2.396261 0.000000 -0.000000 0.000000 0.651131 -11.005929 -5.697207 -9.461216 -34.232559 10.628895 1.417528 -8.827037 -12.463559 0.000000 -0.000000 0.000000 -0.393630 13.310518 1.048225 -2.740035 6.628194 -8.384814 2.642600 6.399436 -4.933582 0.631137 29.909733 0.679092 -2.743396 25.831632 -2.855034 -0.405145 2.889621 -7.682479 -86.063999 -16.805025 21.048859 172.561397 -49.375621 -126.988980 6.776253 -20.041301 -30.403537 0.182740 11.137550 -1.798845 85.441928 29.978322 32.292365 -169.337600 52.874036 -129.040489 3.145202 11.987764 -21.597330 
0.523350 0.213314 0.998341 141.397781 -2.216092 101.278729 4.004466 -13.788747 -19.688481 3.896463 -4.715650 -1.897613 -8.537474 -15.712948 2.049431 0.000000 -0.000000 0.000000 0.770560 -11.185583 -5.473697 -9.422936 -34.705536 10.523682 1.403719 -9.111429 -12.759506 0.000000 -0.000000 0.000000 -1.161540 14.247224 0.850171 -2.746609 7.188884 -8.358093 2.893988 6.643687 -4.841864 1.130737 29.975590 0.715116 -2.914780 25.388283 -2.924781 -0.492914 3.088466 -7.299264 -86.635073 -17.135694 20.970441 172.459988 -49.219874 -126.890759 5.547941 -21.464400 -30.692698 0.437855 11.307922 -1.492931 85.658268 30.277324 32.621104 -169.660287 52.731069 -129.120000 3.879726 12.172191 -21.479269 
0.523925 0.214155 0.997847 141.253103 -2.153049 101.573102 4.223420 -13.802970 -19.703576 3.890443 -4.640957 -2.315492 -8.499539 -15.517813 1.936100 0.000000 -0.000000 0.000000 0.866171 -10.966134 -5.801783 -9.448506 -34.455878 10.671595 1.277850 -9.252168 -12.939600 0.000000 -0.000000 0.000000 -1.309773 14.449256 0.568595 -2.787971 7.355448 -8.160391 2.828757 6.659342 -4.863708 1.461530 29.897370 0.767632 -2.659395 25.291177 -3.048800 -0.538496 3.237503 -7.156703 -86.606667 -16.862738 20.999838 172.738558 -49.018976 -127.199967 6.916751 -20.548866 -30.605170 0.512750 11.232250 -1.443830 85.803811 30.296106 32.844775 -170.098643 52.763781 -129.682608 2.918432 11.971793 -21.830134 
0.523228 0.214070 0.997017 140.273565 -1.812012 102.068206 4.703375 -13.221117 -20.041514 3.768641 -4.077611 -2.522376 -8.520658 -15.404871 2.013411 0.000000 -0.000000 0.000000 1.071723 -10.330081 -6.677633 -9.601278 -34.065135 11.096995 1.147937 -9.173041 -12.918276 0.000000 -0.000000 0.000000 -0.829860 13.551640 0.463792 -2.721918 7.023055 -8.169218 2.624802 6.393437 -4.793566 1.479191 29.435283 0.872791 -2.178890 25.257491 -3.069622 -0.723257 3.545128 -7.322180 -86.054192 -16.552676 20.900811 173.615916 -49.033756 -128.483161 6.187469 -20.567400 -30.727981 0.386969 10.980381 -1.473032 85.809119 30.360567 32.875692 -170.239284 52.804626 -130.042502 3.224662 11.946710 -21.693257 
0.522878 0.213534 0.997254 137.808734 -1.614393 102.075582 4.734636 -12.221462 -19.287707 3.812321 -2.965074 -3.143222 -8.642676 -14.868017 2.183716 0.000000 -0.000000 0.000000 0.769260 -9.360969 -7.142261 -9.679623 -32.962077 11.449882 1.192821 -8.617287 -12.739896 0.000000 -0.000000 0.000000 -0.633830 12.252953 0.741529 -2.362305 6.168935 -7.863057 2.553688 5.906214 -4.688819 1.298049 28.785284 1.125644 -1.659548 24.729539 -3.238861 -0.475308 3.035915 -7.059240 -86.122737 -16.498598 21.101523 172.934681 -49.189802 -128.086297 6.420772 -20.435727 -30.480730 -0.013553 10.755927 -1.731674 85.933919 29.965853 32.747757 -169.990371 52.865142 -129.819747 3.613219 11.852380 -21.336313 
0.522154 0.212362 0.998128 133.974363 -1.290994 102.204341 4.781837 -10.870165 -18.626696 3.958429 -1.506064 -3.322370 -8.398972 -13.755374 1.974824 0.000000 -0.000000 0.000000 0.393113 -8.194994 -7.981495 -9.621311 -30.984943 11.729844 1.312647 -7.959693 -12.425627 0.000000 -0.000000 0.000000 -0.461151 10.648193 1.021604 -1.941751 4.865310 -7.706348 2.424477 5.133036 -4.505586 1.281279 26.606935 1.059937 -0.704941 23.010303 -3.304931 -0.875232 2.446571 -6.834306 -84.812227 -16.936909 20.961817 173.259742 -49.355399 -128.925455 6.011854 -19.866638 -29.408909 -0.013511 10.325223 -2.295463 85.712111 29.230360 32.622893 -169.587511 52.687196 -129.812575 4.315076 11.541810 -20.584947 
